<?xml version="1.0" encoding="utf-8"?>
<!-- Generator: Adobe Illustrator 25.2.1, SVG Export Plug-In . SVG Version: 6.00 Build 0)  -->
<svg version="1.1" id="Layer_1" xmlns="http://www.w3.org/2000/svg" xmlns:xlink="http://www.w3.org/1999/xlink" x="0px" y="0px"
	 viewBox="0 0 145 30" style="enable-background:new 0 0 145 30;" xml:space="preserve">
<style type="text/css">
	.st0{fill-rule:evenodd;clip-rule:evenodd;fill:url(#Union_1_);}
</style>
<linearGradient id="Union_1_" gradientUnits="userSpaceOnUse" x1="-1.8997" y1="0.7217" x2="19.9779" y2="36.6758" gradientTransform="matrix(1 0 0 -1 0 32)">
	<stop  offset="0" style="stop-color:#213F7D"/>
	<stop  offset="1" style="stop-color:#39CDCC"/>
</linearGradient>
<path id="Union" class="st0" d="M0,2.2c0-0.5,0.4-0.8,0.8-0.8h2.5c0.5,0,0.8,0.4,0.8,0.8v15c0,0.5,0.4,0.8,0.8,0.8h10.7
	c0.5,0,0.8-0.4,0.8-0.8v-2.5c0-0.5-0.4-0.8-0.8-0.8h-4.9c-1.4,0-2.5-1.1-2.5-2.5V3.9c0-1.4,1.1-2.5,2.5-2.5h7.4
	c1.4,0,2.5,1.1,2.5,2.5v15.8c0,1.4-1.1,2.5-2.5,2.5H2.5c-1.4,0-2.5-1.1-2.5-2.5V2.2z M16.5,6.4c0-0.5-0.4-0.8-0.8-0.8h-3.3v3.3
	c0,0.5,0.4,0.8,0.8,0.8h3.3V6.4z"/>
</svg>
